<svg width="50" height="50" viewBox="0 0 50 50" fill="none" xmlns="http://www.w3.org/2000/svg">
<rect x="18.75" width="3.125" height="2.5" fill="black"/>
<rect x="18.75" width="3.125" height="2.5" stroke="white"/>
<rect x="18.75" y="2.50003" width="3.125" height="2.5" fill="black"/>
<rect x="18.75" y="2.50003" width="3.125" height="2.5" stroke="white"/>
<rect x="18.75" y="5.00006" width="3.125" height="2.5" fill="black"/>
<rect x="18.75" y="5.00006" width="3.125" height="2.5" stroke="white"/>
<rect x="18.75" y="7.49994" width="3.125" height="2.5" fill="black"/>
<rect x="18.75" y="7.49994" width="3.125" height="2.5" stroke="white"/>
<rect x="18.75" y="9.99997" width="3.125" height="2.5" fill="#DBB17F"/>
<rect x="18.75" y="9.99997" width="3.125" height="2.5" stroke="white"/>
<rect x="18.75" y="12.5" width="3.125" height="2.5" fill="#DBB17F"/>
<rect x="18.75" y="12.5" width="3.125" height="2.5" stroke="white"/>
<rect x="18.75" y="15" width="3.125" height="2.5" fill="#DBB17F"/>
<rect x="18.75" y="15" width="3.125" height="2.5" stroke="white"/>
<rect x="18.75" y="17.5001" width="3.125" height="2.5" fill="#DBB17F"/>
<rect x="18.75" y="17.5001" width="3.125" height="2.5" stroke="white"/>
<rect x="18.75" y="20" width="3.125" height="2.5" fill="#332F2B"/>
<rect x="18.75" y="20" width="3.125" height="2.5" stroke="white"/>
<rect x="18.75" y="22.5" width="3.125" height="2.5" fill="#332F2B"/>
<rect x="18.75" y="22.5" width="3.125" height="2.5" stroke="white"/>
<rect x="18.75" y="25" width="3.125" height="2.5" fill="#332F2B"/>
<rect x="18.75" y="25" width="3.125" height="2.5" stroke="white"/>
<rect x="18.75" y="27.5001" width="3.125" height="2.5" fill="#DBB17F"/>
<rect x="18.75" y="27.5001" width="3.125" height="2.5" stroke="white"/>
<rect x="18.75" y="30.0001" width="3.125" height="2.5" fill="#DBB17F"/>
<rect x="18.75" y="30.0001" width="3.125" height="2.5" stroke="white"/>
<rect x="18.75" y="32.5" width="3.125" height="2.5" fill="#DBB17F"/>
<rect x="18.75" y="32.5" width="3.125" height="2.5" stroke="white"/>
<rect x="18.75" y="35" width="3.125" height="2.5" fill="#DBB17F"/>
<rect x="18.75" y="35" width="3.125" height="2.5" stroke="white"/>
<rect x="18.75" y="37.5" width="3.125" height="2.5" fill="#DBB17F"/>
<rect x="18.75" y="37.5" width="3.125" height="2.5" stroke="white"/>
<rect x="18.75" y="40.0001" width="3.125" height="2.5" fill="#DBB17F"/>
<rect x="18.75" y="40.0001" width="3.125" height="2.5" stroke="white"/>
<rect x="18.75" y="42.5001" width="3.125" height="2.5" fill="#DBB17F"/>
<rect x="18.75" y="42.5001" width="3.125" height="2.5" stroke="white"/>
<rect x="21.875" y="42.5001" width="3.125" height="2.5" fill="#DBB17F"/>
<rect x="21.875" y="42.5001" width="3.125" height="2.5" stroke="white"/>
<rect x="18.75" y="45" width="3.125" height="2.5" fill="#DBB17F"/>
<rect x="18.75" y="45" width="3.125" height="2.5" stroke="white"/>
<rect x="21.875" y="45" width="3.125" height="2.5" fill="#DBB17F"/>
<rect x="21.875" y="45" width="3.125" height="2.5" stroke="white"/>
<rect x="18.75" y="47.5" width="3.125" height="2.5" fill="#DBB17F"/>
<rect x="18.75" y="47.5" width="3.125" height="2.5" stroke="white"/>
<rect x="21.875" y="47.5" width="3.125" height="2.5" fill="#DBB17F"/>
<rect x="21.875" y="47.5" width="3.125" height="2.5" stroke="white"/>
<rect x="15.625" y="5.00006" width="3.125" height="2.5" fill="black"/>
<rect x="15.625" y="5.00006" width="3.125" height="2.5" stroke="white"/>
<rect x="12.5" y="5.00006" width="3.125" height="2.5" fill="black"/>
<rect x="12.5" y="5.00006" width="3.125" height="2.5" stroke="white"/>
<rect x="9.375" y="25" width="3.125" height="2.5" fill="black"/>
<rect x="9.375" y="25" width="3.125" height="2.5" stroke="white"/>
<rect x="6.25" y="25" width="3.125" height="2.5" fill="black"/>
<rect x="6.25" y="25" width="3.125" height="2.5" stroke="white"/>
<rect x="3.125" y="25" width="3.125" height="2.5" fill="black"/>
<rect x="3.125" y="25" width="3.125" height="2.5" stroke="white"/>
<rect y="25" width="3.125" height="2.5" fill="black"/>
<rect y="25" width="3.125" height="2.5" stroke="white"/>
<rect x="43.75" y="25" width="3.125" height="2.5" fill="black"/>
<rect x="43.75" y="25" width="3.125" height="2.5" stroke="white"/>
<rect x="46.875" y="25" width="3.125" height="2.5" fill="black"/>
<rect x="46.875" y="25" width="3.125" height="2.5" stroke="white"/>
<rect x="43.75" y="35" width="3.125" height="2.5" fill="black"/>
<rect x="43.75" y="35" width="3.125" height="2.5" stroke="white"/>
<rect x="46.875" y="35" width="3.125" height="2.5" fill="black"/>
<rect x="46.875" y="35" width="3.125" height="2.5" stroke="white"/>
<rect x="40.625" y="35" width="3.125" height="2.5" fill="black"/>
<rect x="40.625" y="35" width="3.125" height="2.5" stroke="white"/>
<rect x="15.625" y="2.50003" width="3.125" height="2.5" fill="black"/>
<rect x="15.625" y="2.50003" width="3.125" height="2.5" stroke="white"/>
<rect x="9.375" y="7.49994" width="3.125" height="2.5" fill="black"/>
<rect x="9.375" y="7.49994" width="3.125" height="2.5" stroke="white"/>
<rect x="3.125" y="27.5001" width="3.125" height="2.5" fill="black"/>
<rect x="3.125" y="27.5001" width="3.125" height="2.5" stroke="white"/>
<rect x="12.5" y="7.49994" width="3.125" height="2.5" fill="black"/>
<rect x="12.5" y="7.49994" width="3.125" height="2.5" stroke="white"/>
<rect y="27.5001" width="3.125" height="2.5" fill="black"/>
<rect y="27.5001" width="3.125" height="2.5" stroke="white"/>
<rect x="9.375" y="27.5001" width="3.125" height="2.5" fill="black"/>
<rect x="9.375" y="27.5001" width="3.125" height="2.5" stroke="white"/>
<rect x="43.75" y="27.5001" width="3.125" height="2.5" fill="black"/>
<rect x="43.75" y="27.5001" width="3.125" height="2.5" stroke="white"/>
<rect x="6.25" y="27.5001" width="3.125" height="2.5" fill="black"/>
<rect x="6.25" y="27.5001" width="3.125" height="2.5" stroke="white"/>
<rect x="46.875" y="27.5001" width="3.125" height="2.5" fill="black"/>
<rect x="46.875" y="27.5001" width="3.125" height="2.5" stroke="white"/>
<rect x="15.625" y="7.49994" width="3.125" height="2.5" fill="black"/>
<rect x="15.625" y="7.49994" width="3.125" height="2.5" stroke="white"/>
<rect x="40.625" y="37.5" width="3.125" height="2.5" fill="black"/>
<rect x="40.625" y="37.5" width="3.125" height="2.5" stroke="white"/>
<rect x="43.75" y="37.5" width="3.125" height="2.5" fill="black"/>
<rect x="43.75" y="37.5" width="3.125" height="2.5" stroke="white"/>
<rect x="21.875" y="5.00006" width="3.125" height="2.5" fill="black"/>
<rect x="21.875" y="5.00006" width="3.125" height="2.5" stroke="white"/>
<rect x="15.625" y="9.99997" width="3.125" height="2.5" fill="black"/>
<rect x="15.625" y="9.99997" width="3.125" height="2.5" stroke="white"/>
<rect x="15.625" y="12.5" width="3.125" height="2.5" fill="#DBB17F"/>
<rect x="15.625" y="12.5" width="3.125" height="2.5" stroke="white"/>
<rect x="15.625" y="15" width="3.125" height="2.5" fill="#DBB17F"/>
<rect x="15.625" y="15" width="3.125" height="2.5" stroke="white"/>
<rect x="15.625" y="17.5001" width="3.125" height="2.5" fill="#DBB17F"/>
<rect x="15.625" y="17.5001" width="3.125" height="2.5" stroke="white"/>
<rect x="15.625" y="20" width="3.125" height="2.5" fill="#332F2B"/>
<rect x="15.625" y="20" width="3.125" height="2.5" stroke="white"/>
<rect x="15.625" y="22.5" width="3.125" height="2.5" fill="#DBB17F"/>
<rect x="15.625" y="22.5" width="3.125" height="2.5" stroke="white"/>
<rect x="15.625" y="25" width="3.125" height="2.5" fill="#DBB17F"/>
<rect x="15.625" y="25" width="3.125" height="2.5" stroke="white"/>
<rect x="15.625" y="27.5001" width="3.125" height="2.5" fill="#DBB17F"/>
<rect x="15.625" y="27.5001" width="3.125" height="2.5" stroke="white"/>
<rect x="15.625" y="30.0001" width="3.125" height="2.5" fill="#DBB17F"/>
<rect x="15.625" y="30.0001" width="3.125" height="2.5" stroke="white"/>
<rect x="15.625" y="32.5" width="3.125" height="2.5" fill="#DBB17F"/>
<rect x="15.625" y="32.5" width="3.125" height="2.5" stroke="white"/>
<rect x="15.625" y="35" width="3.125" height="2.5" fill="#DBB17F"/>
<rect x="15.625" y="35" width="3.125" height="2.5" stroke="white"/>
<rect x="15.625" y="37.5" width="3.125" height="2.5" fill="#DBB17F"/>
<rect x="15.625" y="37.5" width="3.125" height="2.5" stroke="white"/>
<rect x="15.625" y="40.0001" width="3.125" height="2.5" fill="#DBB17F"/>
<rect x="15.625" y="40.0001" width="3.125" height="2.5" stroke="white"/>
<rect x="15.625" y="42.5001" width="3.125" height="2.5" fill="#DBB17F"/>
<rect x="15.625" y="42.5001" width="3.125" height="2.5" stroke="white"/>
<rect x="12.5" y="9.99997" width="3.125" height="2.5" fill="black"/>
<rect x="12.5" y="9.99997" width="3.125" height="2.5" stroke="white"/>
<rect x="12.5" y="12.5" width="3.125" height="2.5" fill="black"/>
<rect x="12.5" y="12.5" width="3.125" height="2.5" stroke="white"/>
<rect x="9.375" y="9.99997" width="3.125" height="2.5" fill="black"/>
<rect x="9.375" y="9.99997" width="3.125" height="2.5" stroke="white"/>
<rect x="9.375" y="12.5" width="3.125" height="2.5" fill="black"/>
<rect x="9.375" y="12.5" width="3.125" height="2.5" stroke="white"/>
<rect x="9.375" y="15" width="3.125" height="2.5" fill="black"/>
<rect x="9.375" y="15" width="3.125" height="2.5" stroke="white"/>
<rect x="9.375" y="17.5001" width="3.125" height="2.5" fill="black"/>
<rect x="9.375" y="17.5001" width="3.125" height="2.5" stroke="white"/>
<rect x="12.5" y="15" width="3.125" height="2.5" fill="black"/>
<rect x="12.5" y="15" width="3.125" height="2.5" stroke="white"/>
<rect x="12.5" y="17.5001" width="3.125" height="2.5" fill="black"/>
<rect x="12.5" y="17.5001" width="3.125" height="2.5" stroke="white"/>
<rect x="6.25" y="15" width="3.125" height="2.5" fill="black"/>
<rect x="6.25" y="15" width="3.125" height="2.5" stroke="white"/>
<rect x="6.25" y="17.5001" width="3.125" height="2.5" fill="black"/>
<rect x="6.25" y="17.5001" width="3.125" height="2.5" stroke="white"/>
<rect x="3.125" y="15" width="3.125" height="2.5" fill="black"/>
<rect x="3.125" y="15" width="3.125" height="2.5" stroke="white"/>
<rect x="3.125" y="17.5001" width="3.125" height="2.5" fill="black"/>
<rect x="3.125" y="17.5001" width="3.125" height="2.5" stroke="white"/>
<rect x="6.25" y="9.99997" width="3.125" height="2.5" fill="black"/>
<rect x="6.25" y="9.99997" width="3.125" height="2.5" stroke="white"/>
<rect x="6.25" y="12.5" width="3.125" height="2.5" fill="black"/>
<rect x="6.25" y="12.5" width="3.125" height="2.5" stroke="white"/>
<rect x="43.75" y="15" width="3.125" height="2.5" fill="black"/>
<rect x="43.75" y="15" width="3.125" height="2.5" stroke="white"/>
<rect x="43.75" y="17.5001" width="3.125" height="2.5" fill="black"/>
<rect x="43.75" y="17.5001" width="3.125" height="2.5" stroke="white"/>
<rect x="46.875" y="15" width="3.125" height="2.5" fill="black"/>
<rect x="46.875" y="15" width="3.125" height="2.5" stroke="white"/>
<rect x="46.875" y="17.5001" width="3.125" height="2.5" fill="black"/>
<rect x="46.875" y="17.5001" width="3.125" height="2.5" stroke="white"/>
<rect x="9.375" y="30.0001" width="3.125" height="2.5" fill="black"/>
<rect x="9.375" y="30.0001" width="3.125" height="2.5" stroke="white"/>
<rect x="9.375" y="20" width="3.125" height="2.5" fill="black"/>
<rect x="9.375" y="20" width="3.125" height="2.5" stroke="white"/>
<rect x="9.375" y="22.5" width="3.125" height="2.5" fill="black"/>
<rect x="9.375" y="22.5" width="3.125" height="2.5" stroke="white"/>
<rect x="9.375" y="32.5" width="3.125" height="2.5" fill="black"/>
<rect x="9.375" y="32.5" width="3.125" height="2.5" stroke="white"/>
<rect x="6.25" y="30.0001" width="3.125" height="2.5" fill="black"/>
<rect x="6.25" y="30.0001" width="3.125" height="2.5" stroke="white"/>
<rect x="9.375" y="35" width="3.125" height="2.5" fill="black"/>
<rect x="9.375" y="35" width="3.125" height="2.5" stroke="white"/>
<rect x="9.375" y="37.5" width="3.125" height="2.5" fill="black"/>
<rect x="9.375" y="37.5" width="3.125" height="2.5" stroke="white"/>
<rect x="6.25" y="20" width="3.125" height="2.5" fill="black"/>
<rect x="6.25" y="20" width="3.125" height="2.5" stroke="white"/>
<rect x="3.125" y="30.0001" width="3.125" height="2.5" fill="black"/>
<rect x="3.125" y="30.0001" width="3.125" height="2.5" stroke="white"/>
<rect x="6.25" y="22.5" width="3.125" height="2.5" fill="black"/>
<rect x="6.25" y="22.5" width="3.125" height="2.5" stroke="white"/>
<rect x="3.125" y="22.5" width="3.125" height="2.5" fill="black"/>
<rect x="3.125" y="22.5" width="3.125" height="2.5" stroke="white"/>
<rect x="6.25" y="32.5" width="3.125" height="2.5" fill="black"/>
<rect x="6.25" y="32.5" width="3.125" height="2.5" stroke="white"/>
<rect y="30.0001" width="3.125" height="2.5" fill="black"/>
<rect y="30.0001" width="3.125" height="2.5" stroke="white"/>
<rect x="3.125" y="32.5" width="3.125" height="2.5" fill="black"/>
<rect x="3.125" y="32.5" width="3.125" height="2.5" stroke="white"/>
<rect x="3.125" y="35" width="3.125" height="2.5" fill="black"/>
<rect x="3.125" y="35" width="3.125" height="2.5" stroke="white"/>
<rect x="3.125" y="37.5" width="3.125" height="2.5" fill="black"/>
<rect x="3.125" y="37.5" width="3.125" height="2.5" stroke="white"/>
<rect x="3.125" y="20" width="3.125" height="2.5" fill="black"/>
<rect x="3.125" y="20" width="3.125" height="2.5" stroke="white"/>
<rect y="20" width="3.125" height="2.5" fill="black"/>
<rect y="20" width="3.125" height="2.5" stroke="white"/>
<rect y="22.5" width="3.125" height="2.5" fill="black"/>
<rect y="22.5" width="3.125" height="2.5" stroke="white"/>
<rect x="6.25" y="35" width="3.125" height="2.5" fill="black"/>
<rect x="6.25" y="35" width="3.125" height="2.5" stroke="white"/>
<rect x="3.125" y="40.0001" width="3.125" height="2.5" fill="black"/>
<rect x="3.125" y="40.0001" width="3.125" height="2.5" stroke="white"/>
<rect x="6.25" y="37.5" width="3.125" height="2.5" fill="black"/>
<rect x="6.25" y="37.5" width="3.125" height="2.5" stroke="white"/>
<rect y="32.5" width="3.125" height="2.5" fill="black"/>
<rect y="32.5" width="3.125" height="2.5" stroke="white"/>
<rect y="35" width="3.125" height="2.5" fill="black"/>
<rect y="35" width="3.125" height="2.5" stroke="white"/>
<rect y="37.5" width="3.125" height="2.5" fill="black"/>
<rect y="37.5" width="3.125" height="2.5" stroke="white"/>
<rect x="15.625" y="45" width="3.125" height="2.5" fill="#DBB17F"/>
<rect x="15.625" y="45" width="3.125" height="2.5" stroke="white"/>
<rect x="3.125" y="42.5001" width="3.125" height="2.5" fill="black"/>
<rect x="3.125" y="42.5001" width="3.125" height="2.5" stroke="white"/>
<rect x="3.125" y="45" width="3.125" height="2.5" fill="black"/>
<rect x="3.125" y="45" width="3.125" height="2.5" stroke="white"/>
<rect x="15.625" y="47.5" width="3.125" height="2.5" fill="#DBB17F"/>
<rect x="15.625" y="47.5" width="3.125" height="2.5" stroke="white"/>
<rect x="6.25" y="40.0001" width="3.125" height="2.5" fill="black"/>
<rect x="6.25" y="40.0001" width="3.125" height="2.5" stroke="white"/>
<rect y="40.0001" width="3.125" height="2.5" fill="black"/>
<rect y="40.0001" width="3.125" height="2.5" stroke="white"/>
<rect x="43.75" y="20" width="3.125" height="2.5" fill="black"/>
<rect x="43.75" y="20" width="3.125" height="2.5" stroke="white"/>
<rect x="43.75" y="22.5" width="3.125" height="2.5" fill="black"/>
<rect x="43.75" y="22.5" width="3.125" height="2.5" stroke="white"/>
<rect x="6.25" y="42.5001" width="3.125" height="2.5" fill="black"/>
<rect x="6.25" y="42.5001" width="3.125" height="2.5" stroke="white"/>
<rect x="9.375" y="42.5001" width="3.125" height="2.5" fill="black"/>
<rect x="9.375" y="42.5001" width="3.125" height="2.5" stroke="white"/>
<rect y="42.5001" width="3.125" height="2.5" fill="black"/>
<rect y="42.5001" width="3.125" height="2.5" stroke="white"/>
<rect x="9.375" y="40.0001" width="3.125" height="2.5" fill="black"/>
<rect x="9.375" y="40.0001" width="3.125" height="2.5" stroke="white"/>
<rect x="6.25" y="45" width="3.125" height="2.5" fill="black"/>
<rect x="6.25" y="45" width="3.125" height="2.5" stroke="white"/>
<rect x="46.875" y="20" width="3.125" height="2.5" fill="black"/>
<rect x="46.875" y="20" width="3.125" height="2.5" stroke="white"/>
<rect x="43.75" y="30.0001" width="3.125" height="2.5" fill="black"/>
<rect x="43.75" y="30.0001" width="3.125" height="2.5" stroke="white"/>
<rect x="43.75" y="32.5" width="3.125" height="2.5" fill="black"/>
<rect x="43.75" y="32.5" width="3.125" height="2.5" stroke="white"/>
<rect x="46.875" y="22.5" width="3.125" height="2.5" fill="black"/>
<rect x="46.875" y="22.5" width="3.125" height="2.5" stroke="white"/>
<rect x="46.875" y="30.0001" width="3.125" height="2.5" fill="black"/>
<rect x="46.875" y="30.0001" width="3.125" height="2.5" stroke="white"/>
<rect x="46.875" y="32.5" width="3.125" height="2.5" fill="black"/>
<rect x="46.875" y="32.5" width="3.125" height="2.5" stroke="white"/>
<rect x="12.5" y="20" width="3.125" height="2.5" fill="black"/>
<rect x="12.5" y="20" width="3.125" height="2.5" stroke="white"/>
<rect x="12.5" y="22.5" width="3.125" height="2.5" fill="black"/>
<rect x="12.5" y="22.5" width="3.125" height="2.5" stroke="white"/>
<rect x="12.5" y="25" width="3.125" height="2.5" fill="#DBB17F"/>
<rect x="12.5" y="25" width="3.125" height="2.5" stroke="white"/>
<rect x="12.5" y="27.5001" width="3.125" height="2.5" fill="#DBB17F"/>
<rect x="12.5" y="27.5001" width="3.125" height="2.5" stroke="white"/>
<rect x="12.5" y="30.0001" width="3.125" height="2.5" fill="#332F2B"/>
<rect x="12.5" y="30.0001" width="3.125" height="2.5" stroke="white"/>
<rect x="12.5" y="32.5" width="3.125" height="2.5" fill="black"/>
<rect x="12.5" y="32.5" width="3.125" height="2.5" stroke="white"/>
<rect x="12.5" y="35" width="3.125" height="2.5" fill="black"/>
<rect x="12.5" y="35" width="3.125" height="2.5" stroke="white"/>
<rect x="12.5" y="37.5" width="3.125" height="2.5" fill="black"/>
<rect x="12.5" y="37.5" width="3.125" height="2.5" stroke="white"/>
<rect x="12.5" y="40.0001" width="3.125" height="2.5" fill="black"/>
<rect x="12.5" y="40.0001" width="3.125" height="2.5" stroke="white"/>
<rect x="12.5" y="42.5001" width="3.125" height="2.5" fill="black"/>
<rect x="12.5" y="42.5001" width="3.125" height="2.5" stroke="white"/>
<rect x="12.5" y="45" width="3.125" height="2.5" fill="black"/>
<rect x="12.5" y="45" width="3.125" height="2.5" stroke="white"/>
<rect x="12.5" y="47.5" width="3.125" height="2.5" fill="black"/>
<rect x="12.5" y="47.5" width="3.125" height="2.5" stroke="white"/>
<rect x="21.875" y="7.49994" width="3.125" height="2.5" fill="black"/>
<rect x="21.875" y="7.49994" width="3.125" height="2.5" stroke="white"/>
<rect x="21.875" width="3.125" height="2.5" fill="black"/>
<rect x="21.875" width="3.125" height="2.5" stroke="white"/>
<rect x="25" y="5.00006" width="3.125" height="2.5" fill="black"/>
<rect x="25" y="5.00006" width="3.125" height="2.5" stroke="white"/>
<rect x="21.875" y="2.50003" width="3.125" height="2.5" fill="black"/>
<rect x="21.875" y="2.50003" width="3.125" height="2.5" stroke="white"/>
<rect x="21.875" y="9.99997" width="3.125" height="2.5" fill="#DBB17F"/>
<rect x="21.875" y="9.99997" width="3.125" height="2.5" stroke="white"/>
<rect x="21.875" y="12.5" width="3.125" height="2.5" fill="#DBB17F"/>
<rect x="21.875" y="12.5" width="3.125" height="2.5" stroke="white"/>
<rect x="21.875" y="15" width="3.125" height="2.5" fill="#DBB17F"/>
<rect x="21.875" y="15" width="3.125" height="2.5" stroke="white"/>
<rect x="21.875" y="17.5001" width="3.125" height="2.5" fill="#DBB17F"/>
<rect x="21.875" y="17.5001" width="3.125" height="2.5" stroke="white"/>
<rect x="21.875" y="20" width="3.125" height="2.5" fill="#332F2B"/>
<rect x="21.875" y="20" width="3.125" height="2.5" stroke="white"/>
<rect x="21.875" y="22.5" width="3.125" height="2.5" fill="black"/>
<rect x="21.875" y="22.5" width="3.125" height="2.5" stroke="white"/>
<rect x="21.875" y="25" width="3.125" height="2.5" fill="#332F2B"/>
<rect x="21.875" y="25" width="3.125" height="2.5" stroke="white"/>
<rect x="21.875" y="27.5001" width="3.125" height="2.5" fill="#DBB17F"/>
<rect x="21.875" y="27.5001" width="3.125" height="2.5" stroke="white"/>
<rect x="21.875" y="30.0001" width="3.125" height="2.5" fill="#DBB17F"/>
<rect x="21.875" y="30.0001" width="3.125" height="2.5" stroke="white"/>
<rect x="21.875" y="32.5" width="3.125" height="2.5" fill="#DBB17F"/>
<rect x="21.875" y="32.5" width="3.125" height="2.5" stroke="white"/>
<rect x="21.875" y="35" width="3.125" height="2.5" fill="#DBB17F"/>
<rect x="21.875" y="35" width="3.125" height="2.5" stroke="white"/>
<rect x="21.875" y="37.5" width="3.125" height="2.5" fill="#DBB17F"/>
<rect x="21.875" y="37.5" width="3.125" height="2.5" stroke="white"/>
<rect x="21.875" y="40.0001" width="3.125" height="2.5" fill="black"/>
<rect x="21.875" y="40.0001" width="3.125" height="2.5" stroke="white"/>
<rect x="25" y="7.49994" width="3.125" height="2.5" fill="black"/>
<rect x="25" y="7.49994" width="3.125" height="2.5" stroke="white"/>
<rect x="28.125" y="5.00006" width="3.125" height="2.5" fill="black"/>
<rect x="28.125" y="5.00006" width="3.125" height="2.5" stroke="white"/>
<rect x="25" width="3.125" height="2.5" fill="black"/>
<rect x="25" width="3.125" height="2.5" stroke="white"/>
<rect x="25" y="2.50003" width="3.125" height="2.5" fill="black"/>
<rect x="25" y="2.50003" width="3.125" height="2.5" stroke="white"/>
<rect x="31.25" y="5.00006" width="3.125" height="2.5" fill="black"/>
<rect x="31.25" y="5.00006" width="3.125" height="2.5" stroke="white"/>
<rect x="25" y="9.99997" width="3.125" height="2.5" fill="#DBB17F"/>
<rect x="25" y="9.99997" width="3.125" height="2.5" stroke="white"/>
<rect x="25" y="12.5" width="3.125" height="2.5" fill="#DBB17F"/>
<rect x="25" y="12.5" width="3.125" height="2.5" stroke="white"/>
<rect x="25" y="15" width="3.125" height="2.5" fill="#DBB17F"/>
<rect x="25" y="15" width="3.125" height="2.5" stroke="white"/>
<rect x="25" y="17.5001" width="3.125" height="2.5" fill="#DBB17F"/>
<rect x="25" y="17.5001" width="3.125" height="2.5" stroke="white"/>
<rect x="25" y="20" width="3.125" height="2.5" fill="#332F2B"/>
<rect x="25" y="20" width="3.125" height="2.5" stroke="white"/>
<rect x="25" y="22.5" width="3.125" height="2.5" fill="#AF8E6D"/>
<rect x="25" y="22.5" width="3.125" height="2.5" stroke="white"/>
<rect x="25" y="25" width="3.125" height="2.5" fill="#332F2B"/>
<rect x="25" y="25" width="3.125" height="2.5" stroke="white"/>
<rect x="25" y="27.5001" width="3.125" height="2.5" fill="#DBB17F"/>
<rect x="25" y="27.5001" width="3.125" height="2.5" stroke="white"/>
<rect x="25" y="30.0001" width="3.125" height="2.5" fill="#DBB17F"/>
<rect x="25" y="30.0001" width="3.125" height="2.5" stroke="white"/>
<rect x="25" y="32.5" width="3.125" height="2.5" fill="#DBB17F"/>
<rect x="25" y="32.5" width="3.125" height="2.5" stroke="white"/>
<rect x="25" y="35" width="3.125" height="2.5" fill="#DBB17F"/>
<rect x="25" y="35" width="3.125" height="2.5" stroke="white"/>
<rect x="25" y="37.5" width="3.125" height="2.5" fill="#DBB17F"/>
<rect x="25" y="37.5" width="3.125" height="2.5" stroke="white"/>
<rect x="25" y="40.0001" width="3.125" height="2.5" fill="#DBB17F"/>
<rect x="25" y="40.0001" width="3.125" height="2.5" stroke="white"/>
<rect x="25" y="42.5001" width="3.125" height="2.5" fill="black"/>
<rect x="25" y="42.5001" width="3.125" height="2.5" stroke="white"/>
<rect x="25" y="45" width="3.125" height="2.5" fill="black"/>
<rect x="25" y="45" width="3.125" height="2.5" stroke="white"/>
<rect x="25" y="47.5" width="3.125" height="2.5" fill="black"/>
<rect x="25" y="47.5" width="3.125" height="2.5" stroke="white"/>
<rect x="28.125" y="7.49994" width="3.125" height="2.5" fill="black"/>
<rect x="28.125" y="7.49994" width="3.125" height="2.5" stroke="white"/>
<rect x="28.125" width="3.125" height="2.5" fill="black"/>
<rect x="28.125" width="3.125" height="2.5" stroke="white"/>
<rect x="34.375" y="5.00006" width="3.125" height="2.5" fill="black"/>
<rect x="34.375" y="5.00006" width="3.125" height="2.5" stroke="white"/>
<rect x="31.25" y="7.49994" width="3.125" height="2.5" fill="black"/>
<rect x="31.25" y="7.49994" width="3.125" height="2.5" stroke="white"/>
<rect x="28.125" y="2.50003" width="3.125" height="2.5" fill="black"/>
<rect x="28.125" y="2.50003" width="3.125" height="2.5" stroke="white"/>
<rect x="37.5" y="5.00006" width="3.125" height="2.5" fill="black"/>
<rect x="37.5" y="5.00006" width="3.125" height="2.5" stroke="white"/>
<rect x="34.375" y="7.49994" width="3.125" height="2.5" fill="black"/>
<rect x="34.375" y="7.49994" width="3.125" height="2.5" stroke="white"/>
<rect x="40.625" y="5.00006" width="3.125" height="2.5" fill="black"/>
<rect x="40.625" y="5.00006" width="3.125" height="2.5" stroke="white"/>
<rect x="43.75" y="7.49994" width="3.125" height="2.5" fill="black"/>
<rect x="43.75" y="7.49994" width="3.125" height="2.5" stroke="white"/>
<rect x="37.5" y="7.49994" width="3.125" height="2.5" fill="black"/>
<rect x="37.5" y="7.49994" width="3.125" height="2.5" stroke="white"/>
<rect x="40.625" y="7.49994" width="3.125" height="2.5" fill="black"/>
<rect x="40.625" y="7.49994" width="3.125" height="2.5" stroke="white"/>
<rect x="28.125" y="9.99997" width="3.125" height="2.5" fill="#DBB17F"/>
<rect x="28.125" y="9.99997" width="3.125" height="2.5" stroke="white"/>
<rect x="28.125" y="12.5" width="3.125" height="2.5" fill="#DBB17F"/>
<rect x="28.125" y="12.5" width="3.125" height="2.5" stroke="white"/>
<rect x="28.125" y="15" width="3.125" height="2.5" fill="#DBB17F"/>
<rect x="28.125" y="15" width="3.125" height="2.5" stroke="white"/>
<rect x="28.125" y="17.5001" width="3.125" height="2.5" fill="#DBB17F"/>
<rect x="28.125" y="17.5001" width="3.125" height="2.5" stroke="white"/>
<rect x="28.125" y="20" width="3.125" height="2.5" fill="#332F2B"/>
<rect x="28.125" y="20" width="3.125" height="2.5" stroke="white"/>
<rect x="28.125" y="22.5" width="3.125" height="2.5" fill="#332F2B"/>
<rect x="28.125" y="22.5" width="3.125" height="2.5" stroke="white"/>
<rect x="28.125" y="25" width="3.125" height="2.5" fill="#332F2B"/>
<rect x="28.125" y="25" width="3.125" height="2.5" stroke="white"/>
<rect x="28.125" y="27.5001" width="3.125" height="2.5" fill="#DBB17F"/>
<rect x="28.125" y="27.5001" width="3.125" height="2.5" stroke="white"/>
<rect x="28.125" y="30.0001" width="3.125" height="2.5" fill="#DBB17F"/>
<rect x="28.125" y="30.0001" width="3.125" height="2.5" stroke="white"/>
<rect x="28.125" y="32.5" width="3.125" height="2.5" fill="#DBB17F"/>
<rect x="28.125" y="32.5" width="3.125" height="2.5" stroke="white"/>
<rect x="28.125" y="35" width="3.125" height="2.5" fill="#FF3939"/>
<rect x="28.125" y="35" width="3.125" height="2.5" stroke="white"/>
<rect x="28.125" y="37.5" width="3.125" height="2.5" fill="#DBB17F"/>
<rect x="28.125" y="37.5" width="3.125" height="2.5" stroke="white"/>
<rect x="28.125" y="40.0001" width="3.125" height="2.5" fill="#DBB17F"/>
<rect x="28.125" y="40.0001" width="3.125" height="2.5" stroke="white"/>
<rect x="28.125" y="42.5001" width="3.125" height="2.5" fill="black"/>
<rect x="28.125" y="42.5001" width="3.125" height="2.5" stroke="white"/>
<rect x="31.25" width="3.125" height="2.5" fill="black"/>
<rect x="31.25" width="3.125" height="2.5" stroke="white"/>
<rect x="31.25" y="2.50003" width="3.125" height="2.5" fill="black"/>
<rect x="31.25" y="2.50003" width="3.125" height="2.5" stroke="white"/>
<rect x="31.25" y="9.99997" width="3.125" height="2.5" fill="#DBB17F"/>
<rect x="31.25" y="9.99997" width="3.125" height="2.5" stroke="white"/>
<rect x="31.25" y="12.5" width="3.125" height="2.5" fill="#DBB17F"/>
<rect x="31.25" y="12.5" width="3.125" height="2.5" stroke="white"/>
<rect x="31.25" y="15" width="3.125" height="2.5" fill="#DBB17F"/>
<rect x="31.25" y="15" width="3.125" height="2.5" stroke="white"/>
<rect x="31.25" y="17.5001" width="3.125" height="2.5" fill="#DBB17F"/>
<rect x="31.25" y="17.5001" width="3.125" height="2.5" stroke="white"/>
<rect x="31.25" y="20" width="3.125" height="2.5" fill="#332F2B"/>
<rect x="31.25" y="20" width="3.125" height="2.5" stroke="white"/>
<rect x="31.25" y="22.5" width="3.125" height="2.5" fill="#DBB17F"/>
<rect x="31.25" y="22.5" width="3.125" height="2.5" stroke="white"/>
<rect x="31.25" y="25" width="3.125" height="2.5" fill="#DBB17F"/>
<rect x="31.25" y="25" width="3.125" height="2.5" stroke="white"/>
<rect x="31.25" y="27.5001" width="3.125" height="2.5" fill="#1C0F06"/>
<rect x="31.25" y="27.5001" width="3.125" height="2.5" stroke="white"/>
<rect x="31.25" y="30.0001" width="3.125" height="2.5" fill="#DBB17F"/>
<rect x="31.25" y="30.0001" width="3.125" height="2.5" stroke="white"/>
<rect x="31.25" y="32.5" width="3.125" height="2.5" fill="#DBB17F"/>
<rect x="31.25" y="32.5" width="3.125" height="2.5" stroke="white"/>
<rect x="31.25" y="35" width="3.125" height="2.5" fill="#FF3939"/>
<rect x="31.25" y="35" width="3.125" height="2.5" stroke="white"/>
<rect x="31.25" y="40.0001" width="3.125" height="2.5" fill="#DBB17F"/>
<rect x="31.25" y="40.0001" width="3.125" height="2.5" stroke="white"/>
<rect x="31.25" y="37.5" width="3.125" height="2.5" fill="#DBB17F"/>
<rect x="31.25" y="37.5" width="3.125" height="2.5" stroke="white"/>
<rect x="31.25" y="42.5001" width="3.125" height="2.5" fill="black"/>
<rect x="31.25" y="42.5001" width="3.125" height="2.5" stroke="white"/>
<rect x="34.375" width="3.125" height="2.5" fill="black"/>
<rect x="34.375" width="3.125" height="2.5" stroke="white"/>
<rect x="34.375" y="2.50003" width="3.125" height="2.5" fill="black"/>
<rect x="34.375" y="2.50003" width="3.125" height="2.5" stroke="white"/>
<rect x="34.375" y="9.99997" width="3.125" height="2.5" fill="#DBB17F"/>
<rect x="34.375" y="9.99997" width="3.125" height="2.5" stroke="white"/>
<rect x="34.375" y="12.5" width="3.125" height="2.5" fill="#DBB17F"/>
<rect x="34.375" y="12.5" width="3.125" height="2.5" stroke="white"/>
<rect x="34.375" y="15" width="3.125" height="2.5" fill="#DBB17F"/>
<rect x="34.375" y="15" width="3.125" height="2.5" stroke="white"/>
<rect x="34.375" y="17.5001" width="3.125" height="2.5" fill="#DBB17F"/>
<rect x="34.375" y="17.5001" width="3.125" height="2.5" stroke="white"/>
<rect x="34.375" y="20" width="3.125" height="2.5" fill="#332F2B"/>
<rect x="34.375" y="20" width="3.125" height="2.5" stroke="white"/>
<rect x="34.375" y="22.5" width="3.125" height="2.5" fill="#332F2B"/>
<rect x="34.375" y="22.5" width="3.125" height="2.5" stroke="white"/>
<rect x="34.375" y="25" width="3.125" height="2.5" fill="#332F2B"/>
<rect x="34.375" y="25" width="3.125" height="2.5" stroke="white"/>
<rect x="34.375" y="27.5001" width="3.125" height="2.5" fill="#1C0F06"/>
<rect x="34.375" y="27.5001" width="3.125" height="2.5" stroke="white"/>
<rect x="34.375" y="30.0001" width="3.125" height="2.5" fill="#DBB17F"/>
<rect x="34.375" y="30.0001" width="3.125" height="2.5" stroke="white"/>
<rect x="34.375" y="32.5" width="3.125" height="2.5" fill="#DBB17F"/>
<rect x="34.375" y="32.5" width="3.125" height="2.5" stroke="white"/>
<rect x="34.375" y="40.0001" width="3.125" height="2.5" fill="#DBB17F"/>
<rect x="34.375" y="40.0001" width="3.125" height="2.5" stroke="white"/>
<rect x="34.375" y="35" width="3.125" height="2.5" fill="#FF3939"/>
<rect x="34.375" y="35" width="3.125" height="2.5" stroke="white"/>
<rect x="34.375" y="37.5" width="3.125" height="2.5" fill="#DBB17F"/>
<rect x="34.375" y="37.5" width="3.125" height="2.5" stroke="white"/>
<rect x="34.375" y="42.5001" width="3.125" height="2.5" fill="black"/>
<rect x="34.375" y="42.5001" width="3.125" height="2.5" stroke="white"/>
<rect x="37.5" y="2.50003" width="3.125" height="2.5" fill="black"/>
<rect x="37.5" y="2.50003" width="3.125" height="2.5" stroke="white"/>
<rect x="37.5" y="9.99997" width="3.125" height="2.5" fill="black"/>
<rect x="37.5" y="9.99997" width="3.125" height="2.5" stroke="white"/>
<rect x="37.5" y="12.5" width="3.125" height="2.5" fill="#DBB17F"/>
<rect x="37.5" y="12.5" width="3.125" height="2.5" stroke="white"/>
<rect x="37.5" y="15" width="3.125" height="2.5" fill="#DBB17F"/>
<rect x="37.5" y="15" width="3.125" height="2.5" stroke="white"/>
<rect x="37.5" y="17.5001" width="3.125" height="2.5" fill="#DBB17F"/>
<rect x="37.5" y="17.5001" width="3.125" height="2.5" stroke="white"/>
<rect x="37.5" y="20" width="3.125" height="2.5" fill="#332F2B"/>
<rect x="37.5" y="20" width="3.125" height="2.5" stroke="white"/>
<rect x="37.5" y="22.5" width="3.125" height="2.5" fill="black"/>
<rect x="37.5" y="22.5" width="3.125" height="2.5" stroke="white"/>
<rect x="37.5" y="25" width="3.125" height="2.5" fill="#332F2B"/>
<rect x="37.5" y="25" width="3.125" height="2.5" stroke="white"/>
<rect x="37.5" y="27.5001" width="3.125" height="2.5" fill="#DBB17F"/>
<rect x="37.5" y="27.5001" width="3.125" height="2.5" stroke="white"/>
<rect x="37.5" y="30.0001" width="3.125" height="2.5" fill="#DBB17F"/>
<rect x="37.5" y="30.0001" width="3.125" height="2.5" stroke="white"/>
<rect x="37.5" y="40.0001" width="3.125" height="2.5" fill="black"/>
<rect x="37.5" y="40.0001" width="3.125" height="2.5" stroke="white"/>
<rect x="37.5" y="32.5" width="3.125" height="2.5" fill="#DBB17F"/>
<rect x="37.5" y="32.5" width="3.125" height="2.5" stroke="white"/>
<rect x="37.5" y="35" width="3.125" height="2.5" fill="#DBB17F"/>
<rect x="37.5" y="35" width="3.125" height="2.5" stroke="white"/>
<rect x="43.75" y="12.5" width="3.125" height="2.5" fill="black"/>
<rect x="43.75" y="12.5" width="3.125" height="2.5" stroke="white"/>
<rect x="37.5" y="37.5" width="3.125" height="2.5" fill="#DBB17F"/>
<rect x="37.5" y="37.5" width="3.125" height="2.5" stroke="white"/>
<rect x="40.625" y="9.99997" width="3.125" height="2.5" fill="black"/>
<rect x="40.625" y="9.99997" width="3.125" height="2.5" stroke="white"/>
<rect x="40.625" y="12.5" width="3.125" height="2.5" fill="black"/>
<rect x="40.625" y="12.5" width="3.125" height="2.5" stroke="white"/>
<rect x="46.875" y="12.5" width="3.125" height="2.5" fill="black"/>
<rect x="46.875" y="12.5" width="3.125" height="2.5" stroke="white"/>
<rect x="40.625" y="15" width="3.125" height="2.5" fill="#DBB17F"/>
<rect x="40.625" y="15" width="3.125" height="2.5" stroke="white"/>
<rect x="40.625" y="17.5001" width="3.125" height="2.5" fill="#DBB17F"/>
<rect x="40.625" y="17.5001" width="3.125" height="2.5" stroke="white"/>
<rect x="40.625" y="20" width="3.125" height="2.5" fill="#332F2B"/>
<rect x="40.625" y="20" width="3.125" height="2.5" stroke="white"/>
<rect x="40.625" y="22.5" width="3.125" height="2.5" fill="#AF8E6D"/>
<rect x="40.625" y="22.5" width="3.125" height="2.5" stroke="white"/>
<rect x="43.75" y="9.99997" width="3.125" height="2.5" fill="black"/>
<rect x="43.75" y="9.99997" width="3.125" height="2.5" stroke="white"/>
<rect x="40.625" y="25" width="3.125" height="2.5" fill="#332F2B"/>
<rect x="40.625" y="25" width="3.125" height="2.5" stroke="white"/>
<rect x="40.625" y="27.5001" width="3.125" height="2.5" fill="#DBB17F"/>
<rect x="40.625" y="27.5001" width="3.125" height="2.5" stroke="white"/>
<rect x="40.625" y="30.0001" width="3.125" height="2.5" fill="#DBB17F"/>
<rect x="40.625" y="30.0001" width="3.125" height="2.5" stroke="white"/>
<rect x="40.625" y="32.5" width="3.125" height="2.5" fill="#DBB17F"/>
<rect x="40.625" y="32.5" width="3.125" height="2.5" stroke="white"/>
</svg>
