<?xml version="1.0" encoding="UTF-8"?>
<svg width="29px" height="32px" viewBox="0 0 29 32" version="1.1" xmlns="http://www.w3.org/2000/svg" xmlns:xlink="http://www.w3.org/1999/xlink">
    <title>1</title>
    <g id="Page-1" stroke="none" stroke-width="1" fill="none" fill-rule="evenodd">
        <g id="1" fill="#05FFB4" fill-rule="nonzero">
            <path d="M8.14840494,7.875 C7.59452421,7.875 7.1455247,8.32272 7.1455247,8.875 C7.1455247,9.42728 7.59452421,9.875 8.14840494,9.875 L8.14840494,7.875 Z M20.8515981,9.875 C21.4053885,9.875 21.8544783,9.42728 21.8544783,8.875 C21.8544783,8.32272 21.4053885,7.875 20.8515981,7.875 L20.8515981,9.875 Z M8.14840494,14.875 C7.59452421,14.875 7.1455247,15.3227 7.1455247,15.875 C7.1455247,16.4273 7.59452421,16.875 8.14840494,16.875 L8.14840494,14.875 Z M20.8515981,16.875 C21.4053885,16.875 21.8544783,16.4273 21.8544783,15.875 C21.8544783,15.3227 21.4053885,14.875 20.8515981,14.875 L20.8515981,16.875 Z M8.14840494,21.875 C7.59452421,21.875 7.1455247,22.3227 7.1455247,22.875 C7.1455247,23.4273 7.59452421,23.875 8.14840494,23.875 L8.14840494,21.875 Z M14.4999564,23.875 C15.0538471,23.875 15.5028366,23.4273 15.5028366,22.875 C15.5028366,22.3227 15.0538471,21.875 14.4999564,21.875 L14.4999564,23.875 Z M2.00576348,15.875 C2.00576348,10.2101 2.81378409,6.83848 4.62460471,4.84279 C6.40635182,2.87915 9.39507533,2 14.4999564,2 L14.4999564,0 C9.28356508,0 5.52374701,0.87085 3.13726311,3.50096 C0.779872768,6.09902 0,10.1649 0,15.875 L2.00576348,15.875 Z M14.4999564,29.75 C9.39507533,29.75 6.40635182,28.8708 4.62460471,26.9072 C2.81378409,24.9115 2.00576348,21.5399 2.00576348,15.875 L0,15.875 C0,21.5851 0.779872768,25.651 3.13726311,28.249 C5.52374701,30.8792 9.28356508,31.75 14.4999564,31.75 L14.4999564,29.75 Z M26.9942395,15.875 C26.9942395,21.5399 26.1862189,24.9115 24.3753181,26.9072 C22.593601,28.8708 19.6049176,29.75 14.4999564,29.75 L14.4999564,31.75 C19.7164379,31.75 23.4762359,30.8792 25.8626898,28.249 C28.22006,25.651 29,21.5851 29,15.875 L26.9942395,15.875 Z M14.4999564,2 C19.6049176,2 22.593601,2.87915 24.3753181,4.84279 C26.1862189,6.83848 26.9942395,10.2101 26.9942395,15.875 L29,15.875 C29,10.1649 28.22006,6.09902 25.8626898,3.50096 C23.4762359,0.87085 19.7164379,0 14.4999564,0 L14.4999564,2 Z M8.14840494,9.875 L20.8515981,9.875 L20.8515981,7.875 L8.14840494,7.875 L8.14840494,9.875 Z M8.14840494,16.875 L20.8515981,16.875 L20.8515981,14.875 L8.14840494,14.875 L8.14840494,16.875 Z M8.14840494,23.875 L14.4999564,23.875 L14.4999564,21.875 L8.14840494,21.875 L8.14840494,23.875 Z" id="Shape"></path>
        </g>
    </g>
</svg>