<svg width="35" height="35" viewBox="0 0 35 35" fill="none" xmlns="http://www.w3.org/2000/svg">
<path d="M19.8229 3.00984C17.9481 1.33046 14.8428 1.33046 12.9681 3.00984L3.8111 11.2125C3.2852 11.6836 2.93181 12.2791 2.79544 12.9241C1.68336 18.1843 1.60127 23.5693 2.55263 28.8531L2.88945 30.7238C2.99583 31.3147 3.58257 31.7503 4.27206 31.7503H10.6706C11.1975 31.7503 11.6247 31.3798 11.6247 30.9227V19.3364H21.1663V30.9227C21.1663 31.3798 21.5935 31.7503 22.1204 31.7503H28.5188C29.2083 31.7503 29.7951 31.3147 29.9014 30.7238L30.2383 28.8531C31.1896 23.5693 31.1075 18.1843 29.9954 12.9241C29.8591 12.2791 29.5057 11.6836 28.9798 11.2125L19.8229 3.00984Z" stroke="#05FFB4" stroke-width="2"/>
</svg>
