<svg width="35" height="35" viewBox="0 0 35 35" fill="none" xmlns="http://www.w3.org/2000/svg">
<path d="M21.9902 20.826C21.9902 21.5164 22.5498 22.076 23.2402 22.076C23.9305 22.076 24.4902 21.5164 24.4902 20.826H21.9902ZM24.4902 14.7084C24.4902 14.018 23.9305 13.4584 23.2402 13.4584C22.5498 13.4584 21.9902 14.018 21.9902 14.7084H24.4902ZM15.1666 20.826C15.1666 21.5164 15.7263 22.076 16.4166 22.076C17.107 22.076 17.6666 21.5164 17.6666 20.826H15.1666ZM17.6666 8.59073C17.6666 7.90037 17.107 7.34073 16.4166 7.34073C15.7263 7.34073 15.1666 7.90037 15.1666 8.59073H17.6666ZM8.3431 20.826C8.3431 21.5164 8.90274 22.076 9.5931 22.076C10.2835 22.076 10.8431 21.5164 10.8431 20.826H8.3431ZM10.8431 17.7672C10.8431 17.0768 10.2835 16.5172 9.5931 16.5172C8.90274 16.5172 8.3431 17.0768 8.3431 17.7672H10.8431ZM24.4902 20.826V14.7084H21.9902V20.826H24.4902ZM17.6666 20.826V8.59073H15.1666V20.826H17.6666ZM10.8431 20.826V17.7672H8.3431V20.826H10.8431ZM3.16663 14.7084C3.16663 9.80963 4.02388 7.04206 5.84297 5.41114C7.70591 3.74092 10.8993 2.95837 16.4166 2.95837V0.458374C10.8457 0.458374 6.78911 1.20524 4.17411 3.54972C1.51526 5.93352 0.666626 9.66594 0.666626 14.7084H3.16663ZM16.4166 26.4584C10.8993 26.4584 7.70591 25.6758 5.84297 24.0056C4.02388 22.3747 3.16663 19.6071 3.16663 14.7084H0.666626C0.666626 19.7508 1.51526 23.4832 4.17411 25.867C6.78911 28.2115 10.8457 28.9584 16.4166 28.9584V26.4584ZM29.6666 14.7084C29.6666 19.6071 28.8094 22.3747 26.9903 24.0056C25.1273 25.6758 21.9339 26.4584 16.4166 26.4584V28.9584C21.9876 28.9584 26.0441 28.2115 28.6591 25.867C31.318 23.4832 32.1666 19.7508 32.1666 14.7084H29.6666ZM16.4166 2.95837C21.9339 2.95837 25.1273 3.74092 26.9903 5.41114C28.8094 7.04206 29.6666 9.80963 29.6666 14.7084H32.1666C32.1666 9.66594 31.318 5.93352 28.6591 3.54972C26.0441 1.20524 21.9876 0.458374 16.4166 0.458374V2.95837Z" fill="#05FFB4"/>
</svg>
