<svg width="35" height="35" viewBox="0 0 35 35" fill="none" xmlns="http://www.w3.org/2000/svg">
<rect width="37" height="35" rx="17.5" fill="#05FFB4"/>
<rect x="16.0156" y="6" width="1.33594" height="1.15" fill="black"/>
<rect x="16.0156" y="6" width="1.33594" height="1.15" stroke="white"/>
<rect x="16.0156" y="7.15002" width="1.33594" height="1.15" fill="black"/>
<rect x="16.0156" y="7.15002" width="1.33594" height="1.15" stroke="white"/>
<rect x="16.0156" y="8.30005" width="1.33594" height="1.15" fill="black"/>
<rect x="16.0156" y="8.30005" width="1.33594" height="1.15" stroke="white"/>
<rect x="16.0156" y="9.44995" width="1.33594" height="1.15" fill="black"/>
<rect x="16.0156" y="9.44995" width="1.33594" height="1.15" stroke="white"/>
<rect x="16.0156" y="10.6" width="1.33594" height="1.15" fill="#DBB17F"/>
<rect x="16.0156" y="10.6" width="1.33594" height="1.15" stroke="white"/>
<rect x="16.0156" y="11.75" width="1.33594" height="1.15" fill="#DBB17F"/>
<rect x="16.0156" y="11.75" width="1.33594" height="1.15" stroke="white"/>
<rect x="16.0156" y="12.9" width="1.33594" height="1.15" fill="#DBB17F"/>
<rect x="16.0156" y="12.9" width="1.33594" height="1.15" stroke="white"/>
<rect x="16.0156" y="14.05" width="1.33594" height="1.15" fill="#DBB17F"/>
<rect x="16.0156" y="14.05" width="1.33594" height="1.15" stroke="white"/>
<rect x="16.0156" y="15.2" width="1.33594" height="1.15" fill="#332F2B"/>
<rect x="16.0156" y="15.2" width="1.33594" height="1.15" stroke="white"/>
<rect x="16.0156" y="16.35" width="1.33594" height="1.15" fill="#332F2B"/>
<rect x="16.0156" y="16.35" width="1.33594" height="1.15" stroke="white"/>
<rect x="16.0156" y="17.5" width="1.33594" height="1.15" fill="#332F2B"/>
<rect x="16.0156" y="17.5" width="1.33594" height="1.15" stroke="white"/>
<rect x="16.0156" y="18.65" width="1.33594" height="1.15" fill="#DBB17F"/>
<rect x="16.0156" y="18.65" width="1.33594" height="1.15" stroke="white"/>
<rect x="16.0156" y="19.8" width="1.33594" height="1.15" fill="#DBB17F"/>
<rect x="16.0156" y="19.8" width="1.33594" height="1.15" stroke="white"/>
<rect x="16.0156" y="20.95" width="1.33594" height="1.15" fill="#DBB17F"/>
<rect x="16.0156" y="20.95" width="1.33594" height="1.15" stroke="white"/>
<rect x="16.0156" y="22.1" width="1.33594" height="1.15" fill="#DBB17F"/>
<rect x="16.0156" y="22.1" width="1.33594" height="1.15" stroke="white"/>
<rect x="16.0156" y="23.25" width="1.33594" height="1.15" fill="#DBB17F"/>
<rect x="16.0156" y="23.25" width="1.33594" height="1.15" stroke="white"/>
<rect x="16.0156" y="24.4" width="1.33594" height="1.15" fill="#DBB17F"/>
<rect x="16.0156" y="24.4" width="1.33594" height="1.15" stroke="white"/>
<rect x="16.0156" y="25.55" width="1.33594" height="1.15" fill="#DBB17F"/>
<rect x="16.0156" y="25.55" width="1.33594" height="1.15" stroke="white"/>
<rect x="17.3516" y="25.55" width="1.33594" height="1.15" fill="#DBB17F"/>
<rect x="17.3516" y="25.55" width="1.33594" height="1.15" stroke="white"/>
<rect x="16.0156" y="26.7" width="1.33594" height="1.15" fill="#DBB17F"/>
<rect x="16.0156" y="26.7" width="1.33594" height="1.15" stroke="white"/>
<rect x="17.3516" y="26.7" width="1.33594" height="1.15" fill="#DBB17F"/>
<rect x="17.3516" y="26.7" width="1.33594" height="1.15" stroke="white"/>
<rect x="16.0156" y="27.85" width="1.33594" height="1.15" fill="#DBB17F"/>
<rect x="16.0156" y="27.85" width="1.33594" height="1.15" stroke="white"/>
<rect x="17.3516" y="27.85" width="1.33594" height="1.15" fill="#DBB17F"/>
<rect x="17.3516" y="27.85" width="1.33594" height="1.15" stroke="white"/>
<rect x="14.6797" y="8.30005" width="1.33594" height="1.15" fill="black"/>
<rect x="14.6797" y="8.30005" width="1.33594" height="1.15" stroke="white"/>
<rect x="13.3438" y="8.30005" width="1.33594" height="1.15" fill="black"/>
<rect x="13.3438" y="8.30005" width="1.33594" height="1.15" stroke="white"/>
<rect x="12.0078" y="17.5" width="1.33594" height="1.15" fill="black"/>
<rect x="12.0078" y="17.5" width="1.33594" height="1.15" stroke="white"/>
<rect x="10.6719" y="17.5" width="1.33594" height="1.15" fill="black"/>
<rect x="10.6719" y="17.5" width="1.33594" height="1.15" stroke="white"/>
<rect x="9.33594" y="17.5" width="1.33594" height="1.15" fill="black"/>
<rect x="9.33594" y="17.5" width="1.33594" height="1.15" stroke="white"/>
<rect x="8" y="17.5" width="1.33594" height="1.15" fill="black"/>
<rect x="8" y="17.5" width="1.33594" height="1.15" stroke="white"/>
<rect x="26.7031" y="17.5" width="1.33594" height="1.15" fill="black"/>
<rect x="26.7031" y="17.5" width="1.33594" height="1.15" stroke="white"/>
<rect x="28.0391" y="17.5" width="1.33594" height="1.15" fill="black"/>
<rect x="28.0391" y="17.5" width="1.33594" height="1.15" stroke="white"/>
<rect x="26.7031" y="22.1" width="1.33594" height="1.15" fill="black"/>
<rect x="26.7031" y="22.1" width="1.33594" height="1.15" stroke="white"/>
<rect x="28.0391" y="22.1" width="1.33594" height="1.15" fill="black"/>
<rect x="28.0391" y="22.1" width="1.33594" height="1.15" stroke="white"/>
<rect x="25.3672" y="22.1" width="1.33594" height="1.15" fill="black"/>
<rect x="25.3672" y="22.1" width="1.33594" height="1.15" stroke="white"/>
<rect x="14.6797" y="7.15002" width="1.33594" height="1.15" fill="black"/>
<rect x="14.6797" y="7.15002" width="1.33594" height="1.15" stroke="white"/>
<rect x="12.0078" y="9.44995" width="1.33594" height="1.15" fill="black"/>
<rect x="12.0078" y="9.44995" width="1.33594" height="1.15" stroke="white"/>
<rect x="9.33594" y="18.65" width="1.33594" height="1.15" fill="black"/>
<rect x="9.33594" y="18.65" width="1.33594" height="1.15" stroke="white"/>
<rect x="13.3438" y="9.44995" width="1.33594" height="1.15" fill="black"/>
<rect x="13.3438" y="9.44995" width="1.33594" height="1.15" stroke="white"/>
<rect x="8" y="18.65" width="1.33594" height="1.15" fill="black"/>
<rect x="8" y="18.65" width="1.33594" height="1.15" stroke="white"/>
<rect x="12.0078" y="18.65" width="1.33594" height="1.15" fill="black"/>
<rect x="12.0078" y="18.65" width="1.33594" height="1.15" stroke="white"/>
<rect x="26.7031" y="18.65" width="1.33594" height="1.15" fill="black"/>
<rect x="26.7031" y="18.65" width="1.33594" height="1.15" stroke="white"/>
<rect x="10.6719" y="18.65" width="1.33594" height="1.15" fill="black"/>
<rect x="10.6719" y="18.65" width="1.33594" height="1.15" stroke="white"/>
<rect x="28.0391" y="18.65" width="1.33594" height="1.15" fill="black"/>
<rect x="28.0391" y="18.65" width="1.33594" height="1.15" stroke="white"/>
<rect x="14.6797" y="9.44995" width="1.33594" height="1.15" fill="black"/>
<rect x="14.6797" y="9.44995" width="1.33594" height="1.15" stroke="white"/>
<rect x="25.3672" y="23.25" width="1.33594" height="1.15" fill="black"/>
<rect x="25.3672" y="23.25" width="1.33594" height="1.15" stroke="white"/>
<rect x="26.7031" y="23.25" width="1.33594" height="1.15" fill="black"/>
<rect x="26.7031" y="23.25" width="1.33594" height="1.15" stroke="white"/>
<rect x="17.3516" y="8.30005" width="1.33594" height="1.15" fill="black"/>
<rect x="17.3516" y="8.30005" width="1.33594" height="1.15" stroke="white"/>
<rect x="14.6797" y="10.6" width="1.33594" height="1.15" fill="black"/>
<rect x="14.6797" y="10.6" width="1.33594" height="1.15" stroke="white"/>
<rect x="14.6797" y="11.75" width="1.33594" height="1.15" fill="#DBB17F"/>
<rect x="14.6797" y="11.75" width="1.33594" height="1.15" stroke="white"/>
<rect x="14.6797" y="12.9" width="1.33594" height="1.15" fill="#DBB17F"/>
<rect x="14.6797" y="12.9" width="1.33594" height="1.15" stroke="white"/>
<rect x="14.6797" y="14.05" width="1.33594" height="1.15" fill="#DBB17F"/>
<rect x="14.6797" y="14.05" width="1.33594" height="1.15" stroke="white"/>
<rect x="14.6797" y="15.2" width="1.33594" height="1.15" fill="#332F2B"/>
<rect x="14.6797" y="15.2" width="1.33594" height="1.15" stroke="white"/>
<rect x="14.6797" y="16.35" width="1.33594" height="1.15" fill="#DBB17F"/>
<rect x="14.6797" y="16.35" width="1.33594" height="1.15" stroke="white"/>
<rect x="14.6797" y="17.5" width="1.33594" height="1.15" fill="#DBB17F"/>
<rect x="14.6797" y="17.5" width="1.33594" height="1.15" stroke="white"/>
<rect x="14.6797" y="18.65" width="1.33594" height="1.15" fill="#DBB17F"/>
<rect x="14.6797" y="18.65" width="1.33594" height="1.15" stroke="white"/>
<rect x="14.6797" y="19.8" width="1.33594" height="1.15" fill="#DBB17F"/>
<rect x="14.6797" y="19.8" width="1.33594" height="1.15" stroke="white"/>
<rect x="14.6797" y="20.95" width="1.33594" height="1.15" fill="#DBB17F"/>
<rect x="14.6797" y="20.95" width="1.33594" height="1.15" stroke="white"/>
<rect x="14.6797" y="22.1" width="1.33594" height="1.15" fill="#DBB17F"/>
<rect x="14.6797" y="22.1" width="1.33594" height="1.15" stroke="white"/>
<rect x="14.6797" y="23.25" width="1.33594" height="1.15" fill="#DBB17F"/>
<rect x="14.6797" y="23.25" width="1.33594" height="1.15" stroke="white"/>
<rect x="14.6797" y="24.4" width="1.33594" height="1.15" fill="#DBB17F"/>
<rect x="14.6797" y="24.4" width="1.33594" height="1.15" stroke="white"/>
<rect x="14.6797" y="25.55" width="1.33594" height="1.15" fill="#DBB17F"/>
<rect x="14.6797" y="25.55" width="1.33594" height="1.15" stroke="white"/>
<rect x="13.3438" y="10.6" width="1.33594" height="1.15" fill="black"/>
<rect x="13.3438" y="10.6" width="1.33594" height="1.15" stroke="white"/>
<rect x="13.3438" y="11.75" width="1.33594" height="1.15" fill="black"/>
<rect x="13.3438" y="11.75" width="1.33594" height="1.15" stroke="white"/>
<rect x="12.0078" y="10.6" width="1.33594" height="1.15" fill="black"/>
<rect x="12.0078" y="10.6" width="1.33594" height="1.15" stroke="white"/>
<rect x="12.0078" y="11.75" width="1.33594" height="1.15" fill="black"/>
<rect x="12.0078" y="11.75" width="1.33594" height="1.15" stroke="white"/>
<rect x="12.0078" y="12.9" width="1.33594" height="1.15" fill="black"/>
<rect x="12.0078" y="12.9" width="1.33594" height="1.15" stroke="white"/>
<rect x="12.0078" y="14.05" width="1.33594" height="1.15" fill="black"/>
<rect x="12.0078" y="14.05" width="1.33594" height="1.15" stroke="white"/>
<rect x="13.3438" y="12.9" width="1.33594" height="1.15" fill="black"/>
<rect x="13.3438" y="12.9" width="1.33594" height="1.15" stroke="white"/>
<rect x="13.3438" y="14.05" width="1.33594" height="1.15" fill="black"/>
<rect x="13.3438" y="14.05" width="1.33594" height="1.15" stroke="white"/>
<rect x="10.6719" y="12.9" width="1.33594" height="1.15" fill="black"/>
<rect x="10.6719" y="12.9" width="1.33594" height="1.15" stroke="white"/>
<rect x="10.6719" y="14.05" width="1.33594" height="1.15" fill="black"/>
<rect x="10.6719" y="14.05" width="1.33594" height="1.15" stroke="white"/>
<rect x="9.33594" y="12.9" width="1.33594" height="1.15" fill="black"/>
<rect x="9.33594" y="12.9" width="1.33594" height="1.15" stroke="white"/>
<rect x="9.33594" y="14.05" width="1.33594" height="1.15" fill="black"/>
<rect x="9.33594" y="14.05" width="1.33594" height="1.15" stroke="white"/>
<rect x="10.6719" y="10.6" width="1.33594" height="1.15" fill="black"/>
<rect x="10.6719" y="10.6" width="1.33594" height="1.15" stroke="white"/>
<rect x="10.6719" y="11.75" width="1.33594" height="1.15" fill="black"/>
<rect x="10.6719" y="11.75" width="1.33594" height="1.15" stroke="white"/>
<rect x="26.7031" y="12.9" width="1.33594" height="1.15" fill="black"/>
<rect x="26.7031" y="12.9" width="1.33594" height="1.15" stroke="white"/>
<rect x="26.7031" y="14.05" width="1.33594" height="1.15" fill="black"/>
<rect x="26.7031" y="14.05" width="1.33594" height="1.15" stroke="white"/>
<rect x="28.0391" y="12.9" width="1.33594" height="1.15" fill="black"/>
<rect x="28.0391" y="12.9" width="1.33594" height="1.15" stroke="white"/>
<rect x="28.0391" y="14.05" width="1.33594" height="1.15" fill="black"/>
<rect x="28.0391" y="14.05" width="1.33594" height="1.15" stroke="white"/>
<rect x="12.0078" y="19.8" width="1.33594" height="1.15" fill="black"/>
<rect x="12.0078" y="19.8" width="1.33594" height="1.15" stroke="white"/>
<rect x="12.0078" y="15.2" width="1.33594" height="1.15" fill="black"/>
<rect x="12.0078" y="15.2" width="1.33594" height="1.15" stroke="white"/>
<rect x="12.0078" y="16.35" width="1.33594" height="1.15" fill="black"/>
<rect x="12.0078" y="16.35" width="1.33594" height="1.15" stroke="white"/>
<rect x="12.0078" y="20.95" width="1.33594" height="1.15" fill="black"/>
<rect x="12.0078" y="20.95" width="1.33594" height="1.15" stroke="white"/>
<rect x="10.6719" y="19.8" width="1.33594" height="1.15" fill="black"/>
<rect x="10.6719" y="19.8" width="1.33594" height="1.15" stroke="white"/>
<rect x="12.0078" y="22.1" width="1.33594" height="1.15" fill="black"/>
<rect x="12.0078" y="22.1" width="1.33594" height="1.15" stroke="white"/>
<rect x="12.0078" y="23.25" width="1.33594" height="1.15" fill="black"/>
<rect x="12.0078" y="23.25" width="1.33594" height="1.15" stroke="white"/>
<rect x="10.6719" y="15.2" width="1.33594" height="1.15" fill="black"/>
<rect x="10.6719" y="15.2" width="1.33594" height="1.15" stroke="white"/>
<rect x="9.33594" y="19.8" width="1.33594" height="1.15" fill="black"/>
<rect x="9.33594" y="19.8" width="1.33594" height="1.15" stroke="white"/>
<rect x="10.6719" y="16.35" width="1.33594" height="1.15" fill="black"/>
<rect x="10.6719" y="16.35" width="1.33594" height="1.15" stroke="white"/>
<rect x="9.33594" y="16.35" width="1.33594" height="1.15" fill="black"/>
<rect x="9.33594" y="16.35" width="1.33594" height="1.15" stroke="white"/>
<rect x="10.6719" y="20.95" width="1.33594" height="1.15" fill="black"/>
<rect x="10.6719" y="20.95" width="1.33594" height="1.15" stroke="white"/>
<rect x="8" y="19.8" width="1.33594" height="1.15" fill="black"/>
<rect x="8" y="19.8" width="1.33594" height="1.15" stroke="white"/>
<rect x="9.33594" y="20.95" width="1.33594" height="1.15" fill="black"/>
<rect x="9.33594" y="20.95" width="1.33594" height="1.15" stroke="white"/>
<rect x="9.33594" y="22.1" width="1.33594" height="1.15" fill="black"/>
<rect x="9.33594" y="22.1" width="1.33594" height="1.15" stroke="white"/>
<rect x="9.33594" y="23.25" width="1.33594" height="1.15" fill="black"/>
<rect x="9.33594" y="23.25" width="1.33594" height="1.15" stroke="white"/>
<rect x="9.33594" y="15.2" width="1.33594" height="1.15" fill="black"/>
<rect x="9.33594" y="15.2" width="1.33594" height="1.15" stroke="white"/>
<rect x="8" y="15.2" width="1.33594" height="1.15" fill="black"/>
<rect x="8" y="15.2" width="1.33594" height="1.15" stroke="white"/>
<rect x="8" y="16.35" width="1.33594" height="1.15" fill="black"/>
<rect x="8" y="16.35" width="1.33594" height="1.15" stroke="white"/>
<rect x="10.6719" y="22.1" width="1.33594" height="1.15" fill="black"/>
<rect x="10.6719" y="22.1" width="1.33594" height="1.15" stroke="white"/>
<rect x="9.33594" y="24.4" width="1.33594" height="1.15" fill="black"/>
<rect x="9.33594" y="24.4" width="1.33594" height="1.15" stroke="white"/>
<rect x="10.6719" y="23.25" width="1.33594" height="1.15" fill="black"/>
<rect x="10.6719" y="23.25" width="1.33594" height="1.15" stroke="white"/>
<rect x="8" y="20.95" width="1.33594" height="1.15" fill="black"/>
<rect x="8" y="20.95" width="1.33594" height="1.15" stroke="white"/>
<rect x="8" y="22.1" width="1.33594" height="1.15" fill="black"/>
<rect x="8" y="22.1" width="1.33594" height="1.15" stroke="white"/>
<rect x="8" y="23.25" width="1.33594" height="1.15" fill="black"/>
<rect x="8" y="23.25" width="1.33594" height="1.15" stroke="white"/>
<rect x="14.6797" y="26.7" width="1.33594" height="1.15" fill="#DBB17F"/>
<rect x="14.6797" y="26.7" width="1.33594" height="1.15" stroke="white"/>
<rect x="9.33594" y="25.55" width="1.33594" height="1.15" fill="black"/>
<rect x="9.33594" y="25.55" width="1.33594" height="1.15" stroke="white"/>
<rect x="9.33594" y="26.7" width="1.33594" height="1.15" fill="black"/>
<rect x="9.33594" y="26.7" width="1.33594" height="1.15" stroke="white"/>
<rect x="14.6797" y="27.85" width="1.33594" height="1.15" fill="#DBB17F"/>
<rect x="14.6797" y="27.85" width="1.33594" height="1.15" stroke="white"/>
<rect x="10.6719" y="24.4" width="1.33594" height="1.15" fill="black"/>
<rect x="10.6719" y="24.4" width="1.33594" height="1.15" stroke="white"/>
<rect x="8" y="24.4" width="1.33594" height="1.15" fill="black"/>
<rect x="8" y="24.4" width="1.33594" height="1.15" stroke="white"/>
<rect x="26.7031" y="15.2" width="1.33594" height="1.15" fill="black"/>
<rect x="26.7031" y="15.2" width="1.33594" height="1.15" stroke="white"/>
<rect x="26.7031" y="16.35" width="1.33594" height="1.15" fill="black"/>
<rect x="26.7031" y="16.35" width="1.33594" height="1.15" stroke="white"/>
<rect x="10.6719" y="25.55" width="1.33594" height="1.15" fill="black"/>
<rect x="10.6719" y="25.55" width="1.33594" height="1.15" stroke="white"/>
<rect x="12.0078" y="25.55" width="1.33594" height="1.15" fill="black"/>
<rect x="12.0078" y="25.55" width="1.33594" height="1.15" stroke="white"/>
<rect x="8" y="25.55" width="1.33594" height="1.15" fill="black"/>
<rect x="8" y="25.55" width="1.33594" height="1.15" stroke="white"/>
<rect x="12.0078" y="24.4" width="1.33594" height="1.15" fill="black"/>
<rect x="12.0078" y="24.4" width="1.33594" height="1.15" stroke="white"/>
<rect x="10.6719" y="26.7" width="1.33594" height="1.15" fill="black"/>
<rect x="10.6719" y="26.7" width="1.33594" height="1.15" stroke="white"/>
<rect x="28.0391" y="15.2" width="1.33594" height="1.15" fill="black"/>
<rect x="28.0391" y="15.2" width="1.33594" height="1.15" stroke="white"/>
<rect x="26.7031" y="19.8" width="1.33594" height="1.15" fill="black"/>
<rect x="26.7031" y="19.8" width="1.33594" height="1.15" stroke="white"/>
<rect x="26.7031" y="20.95" width="1.33594" height="1.15" fill="black"/>
<rect x="26.7031" y="20.95" width="1.33594" height="1.15" stroke="white"/>
<rect x="28.0391" y="16.35" width="1.33594" height="1.15" fill="black"/>
<rect x="28.0391" y="16.35" width="1.33594" height="1.15" stroke="white"/>
<rect x="28.0391" y="19.8" width="1.33594" height="1.15" fill="black"/>
<rect x="28.0391" y="19.8" width="1.33594" height="1.15" stroke="white"/>
<rect x="28.0391" y="20.95" width="1.33594" height="1.15" fill="black"/>
<rect x="28.0391" y="20.95" width="1.33594" height="1.15" stroke="white"/>
<rect x="13.3438" y="15.2" width="1.33594" height="1.15" fill="black"/>
<rect x="13.3438" y="15.2" width="1.33594" height="1.15" stroke="white"/>
<rect x="13.3438" y="16.35" width="1.33594" height="1.15" fill="black"/>
<rect x="13.3438" y="16.35" width="1.33594" height="1.15" stroke="white"/>
<rect x="13.3438" y="17.5" width="1.33594" height="1.15" fill="#DBB17F"/>
<rect x="13.3438" y="17.5" width="1.33594" height="1.15" stroke="white"/>
<rect x="13.3438" y="18.65" width="1.33594" height="1.15" fill="#DBB17F"/>
<rect x="13.3438" y="18.65" width="1.33594" height="1.15" stroke="white"/>
<rect x="13.3438" y="19.8" width="1.33594" height="1.15" fill="#332F2B"/>
<rect x="13.3438" y="19.8" width="1.33594" height="1.15" stroke="white"/>
<rect x="13.3438" y="20.95" width="1.33594" height="1.15" fill="black"/>
<rect x="13.3438" y="20.95" width="1.33594" height="1.15" stroke="white"/>
<rect x="13.3438" y="22.1" width="1.33594" height="1.15" fill="black"/>
<rect x="13.3438" y="22.1" width="1.33594" height="1.15" stroke="white"/>
<rect x="13.3438" y="23.25" width="1.33594" height="1.15" fill="black"/>
<rect x="13.3438" y="23.25" width="1.33594" height="1.15" stroke="white"/>
<rect x="13.3438" y="24.4" width="1.33594" height="1.15" fill="black"/>
<rect x="13.3438" y="24.4" width="1.33594" height="1.15" stroke="white"/>
<rect x="13.3438" y="25.55" width="1.33594" height="1.15" fill="black"/>
<rect x="13.3438" y="25.55" width="1.33594" height="1.15" stroke="white"/>
<rect x="13.3438" y="26.7" width="1.33594" height="1.15" fill="black"/>
<rect x="13.3438" y="26.7" width="1.33594" height="1.15" stroke="white"/>
<rect x="13.3438" y="27.85" width="1.33594" height="1.15" fill="black"/>
<rect x="13.3438" y="27.85" width="1.33594" height="1.15" stroke="white"/>
<rect x="17.3516" y="9.44995" width="1.33594" height="1.15" fill="black"/>
<rect x="17.3516" y="9.44995" width="1.33594" height="1.15" stroke="white"/>
<rect x="17.3516" y="6" width="1.33594" height="1.15" fill="black"/>
<rect x="17.3516" y="6" width="1.33594" height="1.15" stroke="white"/>
<rect x="18.6875" y="8.30005" width="1.33594" height="1.15" fill="black"/>
<rect x="18.6875" y="8.30005" width="1.33594" height="1.15" stroke="white"/>
<rect x="17.3516" y="7.15002" width="1.33594" height="1.15" fill="black"/>
<rect x="17.3516" y="7.15002" width="1.33594" height="1.15" stroke="white"/>
<rect x="17.3516" y="10.6" width="1.33594" height="1.15" fill="#DBB17F"/>
<rect x="17.3516" y="10.6" width="1.33594" height="1.15" stroke="white"/>
<rect x="17.3516" y="11.75" width="1.33594" height="1.15" fill="#DBB17F"/>
<rect x="17.3516" y="11.75" width="1.33594" height="1.15" stroke="white"/>
<rect x="17.3516" y="12.9" width="1.33594" height="1.15" fill="#DBB17F"/>
<rect x="17.3516" y="12.9" width="1.33594" height="1.15" stroke="white"/>
<rect x="17.3516" y="14.05" width="1.33594" height="1.15" fill="#DBB17F"/>
<rect x="17.3516" y="14.05" width="1.33594" height="1.15" stroke="white"/>
<rect x="17.3516" y="15.2" width="1.33594" height="1.15" fill="#332F2B"/>
<rect x="17.3516" y="15.2" width="1.33594" height="1.15" stroke="white"/>
<rect x="17.3516" y="16.35" width="1.33594" height="1.15" fill="black"/>
<rect x="17.3516" y="16.35" width="1.33594" height="1.15" stroke="white"/>
<rect x="17.3516" y="17.5" width="1.33594" height="1.15" fill="#332F2B"/>
<rect x="17.3516" y="17.5" width="1.33594" height="1.15" stroke="white"/>
<rect x="17.3516" y="18.65" width="1.33594" height="1.15" fill="#DBB17F"/>
<rect x="17.3516" y="18.65" width="1.33594" height="1.15" stroke="white"/>
<rect x="17.3516" y="19.8" width="1.33594" height="1.15" fill="#DBB17F"/>
<rect x="17.3516" y="19.8" width="1.33594" height="1.15" stroke="white"/>
<rect x="17.3516" y="20.95" width="1.33594" height="1.15" fill="#DBB17F"/>
<rect x="17.3516" y="20.95" width="1.33594" height="1.15" stroke="white"/>
<rect x="17.3516" y="22.1" width="1.33594" height="1.15" fill="#DBB17F"/>
<rect x="17.3516" y="22.1" width="1.33594" height="1.15" stroke="white"/>
<rect x="17.3516" y="23.25" width="1.33594" height="1.15" fill="#DBB17F"/>
<rect x="17.3516" y="23.25" width="1.33594" height="1.15" stroke="white"/>
<rect x="17.3516" y="24.4" width="1.33594" height="1.15" fill="black"/>
<rect x="17.3516" y="24.4" width="1.33594" height="1.15" stroke="white"/>
<rect x="18.6875" y="9.44995" width="1.33594" height="1.15" fill="black"/>
<rect x="18.6875" y="9.44995" width="1.33594" height="1.15" stroke="white"/>
<rect x="20.0234" y="8.30005" width="1.33594" height="1.15" fill="black"/>
<rect x="20.0234" y="8.30005" width="1.33594" height="1.15" stroke="white"/>
<rect x="18.6875" y="6" width="1.33594" height="1.15" fill="black"/>
<rect x="18.6875" y="6" width="1.33594" height="1.15" stroke="white"/>
<rect x="18.6875" y="7.15002" width="1.33594" height="1.15" fill="black"/>
<rect x="18.6875" y="7.15002" width="1.33594" height="1.15" stroke="white"/>
<rect x="21.3594" y="8.30005" width="1.33594" height="1.15" fill="black"/>
<rect x="21.3594" y="8.30005" width="1.33594" height="1.15" stroke="white"/>
<rect x="18.6875" y="10.6" width="1.33594" height="1.15" fill="#DBB17F"/>
<rect x="18.6875" y="10.6" width="1.33594" height="1.15" stroke="white"/>
<rect x="18.6875" y="11.75" width="1.33594" height="1.15" fill="#DBB17F"/>
<rect x="18.6875" y="11.75" width="1.33594" height="1.15" stroke="white"/>
<rect x="18.6875" y="12.9" width="1.33594" height="1.15" fill="#DBB17F"/>
<rect x="18.6875" y="12.9" width="1.33594" height="1.15" stroke="white"/>
<rect x="18.6875" y="14.05" width="1.33594" height="1.15" fill="#DBB17F"/>
<rect x="18.6875" y="14.05" width="1.33594" height="1.15" stroke="white"/>
<rect x="18.6875" y="15.2" width="1.33594" height="1.15" fill="#332F2B"/>
<rect x="18.6875" y="15.2" width="1.33594" height="1.15" stroke="white"/>
<rect x="18.6875" y="16.35" width="1.33594" height="1.15" fill="#AF8E6D"/>
<rect x="18.6875" y="16.35" width="1.33594" height="1.15" stroke="white"/>
<rect x="18.6875" y="17.5" width="1.33594" height="1.15" fill="#332F2B"/>
<rect x="18.6875" y="17.5" width="1.33594" height="1.15" stroke="white"/>
<rect x="18.6875" y="18.65" width="1.33594" height="1.15" fill="#DBB17F"/>
<rect x="18.6875" y="18.65" width="1.33594" height="1.15" stroke="white"/>
<rect x="18.6875" y="19.8" width="1.33594" height="1.15" fill="#DBB17F"/>
<rect x="18.6875" y="19.8" width="1.33594" height="1.15" stroke="white"/>
<rect x="18.6875" y="20.95" width="1.33594" height="1.15" fill="#DBB17F"/>
<rect x="18.6875" y="20.95" width="1.33594" height="1.15" stroke="white"/>
<rect x="18.6875" y="22.1" width="1.33594" height="1.15" fill="#DBB17F"/>
<rect x="18.6875" y="22.1" width="1.33594" height="1.15" stroke="white"/>
<rect x="18.6875" y="23.25" width="1.33594" height="1.15" fill="#DBB17F"/>
<rect x="18.6875" y="23.25" width="1.33594" height="1.15" stroke="white"/>
<rect x="18.6875" y="24.4" width="1.33594" height="1.15" fill="#DBB17F"/>
<rect x="18.6875" y="24.4" width="1.33594" height="1.15" stroke="white"/>
<rect x="18.6875" y="25.55" width="1.33594" height="1.15" fill="black"/>
<rect x="18.6875" y="25.55" width="1.33594" height="1.15" stroke="white"/>
<rect x="18.6875" y="26.7" width="1.33594" height="1.15" fill="black"/>
<rect x="18.6875" y="26.7" width="1.33594" height="1.15" stroke="white"/>
<rect x="18.6875" y="27.85" width="1.33594" height="1.15" fill="black"/>
<rect x="18.6875" y="27.85" width="1.33594" height="1.15" stroke="white"/>
<rect x="20.0234" y="9.44995" width="1.33594" height="1.15" fill="black"/>
<rect x="20.0234" y="9.44995" width="1.33594" height="1.15" stroke="white"/>
<rect x="20.0234" y="6" width="1.33594" height="1.15" fill="black"/>
<rect x="20.0234" y="6" width="1.33594" height="1.15" stroke="white"/>
<rect x="22.6953" y="8.30005" width="1.33594" height="1.15" fill="black"/>
<rect x="22.6953" y="8.30005" width="1.33594" height="1.15" stroke="white"/>
<rect x="21.3594" y="9.44995" width="1.33594" height="1.15" fill="black"/>
<rect x="21.3594" y="9.44995" width="1.33594" height="1.15" stroke="white"/>
<rect x="20.0234" y="7.15002" width="1.33594" height="1.15" fill="black"/>
<rect x="20.0234" y="7.15002" width="1.33594" height="1.15" stroke="white"/>
<rect x="24.0312" y="8.30005" width="1.33594" height="1.15" fill="black"/>
<rect x="24.0312" y="8.30005" width="1.33594" height="1.15" stroke="white"/>
<rect x="22.6953" y="9.44995" width="1.33594" height="1.15" fill="black"/>
<rect x="22.6953" y="9.44995" width="1.33594" height="1.15" stroke="white"/>
<rect x="25.3672" y="8.30005" width="1.33594" height="1.15" fill="black"/>
<rect x="25.3672" y="8.30005" width="1.33594" height="1.15" stroke="white"/>
<rect x="26.7031" y="9.44995" width="1.33594" height="1.15" fill="black"/>
<rect x="26.7031" y="9.44995" width="1.33594" height="1.15" stroke="white"/>
<rect x="24.0312" y="9.44995" width="1.33594" height="1.15" fill="black"/>
<rect x="24.0312" y="9.44995" width="1.33594" height="1.15" stroke="white"/>
<rect x="25.3672" y="9.44995" width="1.33594" height="1.15" fill="black"/>
<rect x="25.3672" y="9.44995" width="1.33594" height="1.15" stroke="white"/>
<rect x="20.0234" y="10.6" width="1.33594" height="1.15" fill="#DBB17F"/>
<rect x="20.0234" y="10.6" width="1.33594" height="1.15" stroke="white"/>
<rect x="20.0234" y="11.75" width="1.33594" height="1.15" fill="#DBB17F"/>
<rect x="20.0234" y="11.75" width="1.33594" height="1.15" stroke="white"/>
<rect x="20.0234" y="12.9" width="1.33594" height="1.15" fill="#DBB17F"/>
<rect x="20.0234" y="12.9" width="1.33594" height="1.15" stroke="white"/>
<rect x="20.0234" y="14.05" width="1.33594" height="1.15" fill="#DBB17F"/>
<rect x="20.0234" y="14.05" width="1.33594" height="1.15" stroke="white"/>
<rect x="20.0234" y="15.2" width="1.33594" height="1.15" fill="#332F2B"/>
<rect x="20.0234" y="15.2" width="1.33594" height="1.15" stroke="white"/>
<rect x="20.0234" y="16.35" width="1.33594" height="1.15" fill="#332F2B"/>
<rect x="20.0234" y="16.35" width="1.33594" height="1.15" stroke="white"/>
<rect x="20.0234" y="17.5" width="1.33594" height="1.15" fill="#332F2B"/>
<rect x="20.0234" y="17.5" width="1.33594" height="1.15" stroke="white"/>
<rect x="20.0234" y="18.65" width="1.33594" height="1.15" fill="#DBB17F"/>
<rect x="20.0234" y="18.65" width="1.33594" height="1.15" stroke="white"/>
<rect x="20.0234" y="19.8" width="1.33594" height="1.15" fill="#DBB17F"/>
<rect x="20.0234" y="19.8" width="1.33594" height="1.15" stroke="white"/>
<rect x="20.0234" y="20.95" width="1.33594" height="1.15" fill="#DBB17F"/>
<rect x="20.0234" y="20.95" width="1.33594" height="1.15" stroke="white"/>
<rect x="20.0234" y="22.1" width="1.33594" height="1.15" fill="#FF3939"/>
<rect x="20.0234" y="22.1" width="1.33594" height="1.15" stroke="white"/>
<rect x="20.0234" y="23.25" width="1.33594" height="1.15" fill="#DBB17F"/>
<rect x="20.0234" y="23.25" width="1.33594" height="1.15" stroke="white"/>
<rect x="20.0234" y="24.4" width="1.33594" height="1.15" fill="#DBB17F"/>
<rect x="20.0234" y="24.4" width="1.33594" height="1.15" stroke="white"/>
<rect x="20.0234" y="25.55" width="1.33594" height="1.15" fill="black"/>
<rect x="20.0234" y="25.55" width="1.33594" height="1.15" stroke="white"/>
<rect x="21.3594" y="6" width="1.33594" height="1.15" fill="black"/>
<rect x="21.3594" y="6" width="1.33594" height="1.15" stroke="white"/>
<rect x="21.3594" y="7.15002" width="1.33594" height="1.15" fill="black"/>
<rect x="21.3594" y="7.15002" width="1.33594" height="1.15" stroke="white"/>
<rect x="21.3594" y="10.6" width="1.33594" height="1.15" fill="#DBB17F"/>
<rect x="21.3594" y="10.6" width="1.33594" height="1.15" stroke="white"/>
<rect x="21.3594" y="11.75" width="1.33594" height="1.15" fill="#DBB17F"/>
<rect x="21.3594" y="11.75" width="1.33594" height="1.15" stroke="white"/>
<rect x="21.3594" y="12.9" width="1.33594" height="1.15" fill="#DBB17F"/>
<rect x="21.3594" y="12.9" width="1.33594" height="1.15" stroke="white"/>
<rect x="21.3594" y="14.05" width="1.33594" height="1.15" fill="#DBB17F"/>
<rect x="21.3594" y="14.05" width="1.33594" height="1.15" stroke="white"/>
<rect x="21.3594" y="15.2" width="1.33594" height="1.15" fill="#332F2B"/>
<rect x="21.3594" y="15.2" width="1.33594" height="1.15" stroke="white"/>
<rect x="21.3594" y="16.35" width="1.33594" height="1.15" fill="#DBB17F"/>
<rect x="21.3594" y="16.35" width="1.33594" height="1.15" stroke="white"/>
<rect x="21.3594" y="17.5" width="1.33594" height="1.15" fill="#DBB17F"/>
<rect x="21.3594" y="17.5" width="1.33594" height="1.15" stroke="white"/>
<rect x="21.3594" y="18.65" width="1.33594" height="1.15" fill="#1C0F06"/>
<rect x="21.3594" y="18.65" width="1.33594" height="1.15" stroke="white"/>
<rect x="21.3594" y="19.8" width="1.33594" height="1.15" fill="#DBB17F"/>
<rect x="21.3594" y="19.8" width="1.33594" height="1.15" stroke="white"/>
<rect x="21.3594" y="20.95" width="1.33594" height="1.15" fill="#DBB17F"/>
<rect x="21.3594" y="20.95" width="1.33594" height="1.15" stroke="white"/>
<rect x="21.3594" y="22.1" width="1.33594" height="1.15" fill="#FF3939"/>
<rect x="21.3594" y="22.1" width="1.33594" height="1.15" stroke="white"/>
<rect x="21.3594" y="24.4" width="1.33594" height="1.15" fill="#DBB17F"/>
<rect x="21.3594" y="24.4" width="1.33594" height="1.15" stroke="white"/>
<rect x="21.3594" y="23.25" width="1.33594" height="1.15" fill="#DBB17F"/>
<rect x="21.3594" y="23.25" width="1.33594" height="1.15" stroke="white"/>
<rect x="21.3594" y="25.55" width="1.33594" height="1.15" fill="black"/>
<rect x="21.3594" y="25.55" width="1.33594" height="1.15" stroke="white"/>
<rect x="22.6953" y="6" width="1.33594" height="1.15" fill="black"/>
<rect x="22.6953" y="6" width="1.33594" height="1.15" stroke="white"/>
<rect x="22.6953" y="7.15002" width="1.33594" height="1.15" fill="black"/>
<rect x="22.6953" y="7.15002" width="1.33594" height="1.15" stroke="white"/>
<rect x="22.6953" y="10.6" width="1.33594" height="1.15" fill="#DBB17F"/>
<rect x="22.6953" y="10.6" width="1.33594" height="1.15" stroke="white"/>
<rect x="22.6953" y="11.75" width="1.33594" height="1.15" fill="#DBB17F"/>
<rect x="22.6953" y="11.75" width="1.33594" height="1.15" stroke="white"/>
<rect x="22.6953" y="12.9" width="1.33594" height="1.15" fill="#DBB17F"/>
<rect x="22.6953" y="12.9" width="1.33594" height="1.15" stroke="white"/>
<rect x="22.6953" y="14.05" width="1.33594" height="1.15" fill="#DBB17F"/>
<rect x="22.6953" y="14.05" width="1.33594" height="1.15" stroke="white"/>
<rect x="22.6953" y="15.2" width="1.33594" height="1.15" fill="#332F2B"/>
<rect x="22.6953" y="15.2" width="1.33594" height="1.15" stroke="white"/>
<rect x="22.6953" y="16.35" width="1.33594" height="1.15" fill="#332F2B"/>
<rect x="22.6953" y="16.35" width="1.33594" height="1.15" stroke="white"/>
<rect x="22.6953" y="17.5" width="1.33594" height="1.15" fill="#332F2B"/>
<rect x="22.6953" y="17.5" width="1.33594" height="1.15" stroke="white"/>
<rect x="22.6953" y="18.65" width="1.33594" height="1.15" fill="#1C0F06"/>
<rect x="22.6953" y="18.65" width="1.33594" height="1.15" stroke="white"/>
<rect x="22.6953" y="19.8" width="1.33594" height="1.15" fill="#DBB17F"/>
<rect x="22.6953" y="19.8" width="1.33594" height="1.15" stroke="white"/>
<rect x="22.6953" y="20.95" width="1.33594" height="1.15" fill="#DBB17F"/>
<rect x="22.6953" y="20.95" width="1.33594" height="1.15" stroke="white"/>
<rect x="22.6953" y="24.4" width="1.33594" height="1.15" fill="#DBB17F"/>
<rect x="22.6953" y="24.4" width="1.33594" height="1.15" stroke="white"/>
<rect x="22.6953" y="22.1" width="1.33594" height="1.15" fill="#FF3939"/>
<rect x="22.6953" y="22.1" width="1.33594" height="1.15" stroke="white"/>
<rect x="22.6953" y="23.25" width="1.33594" height="1.15" fill="#DBB17F"/>
<rect x="22.6953" y="23.25" width="1.33594" height="1.15" stroke="white"/>
<rect x="22.6953" y="25.55" width="1.33594" height="1.15" fill="black"/>
<rect x="22.6953" y="25.55" width="1.33594" height="1.15" stroke="white"/>
<rect x="24.0312" y="7.15002" width="1.33594" height="1.15" fill="black"/>
<rect x="24.0312" y="7.15002" width="1.33594" height="1.15" stroke="white"/>
<rect x="24.0312" y="10.6" width="1.33594" height="1.15" fill="black"/>
<rect x="24.0312" y="10.6" width="1.33594" height="1.15" stroke="white"/>
<rect x="24.0312" y="11.75" width="1.33594" height="1.15" fill="#DBB17F"/>
<rect x="24.0312" y="11.75" width="1.33594" height="1.15" stroke="white"/>
<rect x="24.0312" y="12.9" width="1.33594" height="1.15" fill="#DBB17F"/>
<rect x="24.0312" y="12.9" width="1.33594" height="1.15" stroke="white"/>
<rect x="24.0312" y="14.05" width="1.33594" height="1.15" fill="#DBB17F"/>
<rect x="24.0312" y="14.05" width="1.33594" height="1.15" stroke="white"/>
<rect x="24.0312" y="15.2" width="1.33594" height="1.15" fill="#332F2B"/>
<rect x="24.0312" y="15.2" width="1.33594" height="1.15" stroke="white"/>
<rect x="24.0312" y="16.35" width="1.33594" height="1.15" fill="black"/>
<rect x="24.0312" y="16.35" width="1.33594" height="1.15" stroke="white"/>
<rect x="24.0312" y="17.5" width="1.33594" height="1.15" fill="#332F2B"/>
<rect x="24.0312" y="17.5" width="1.33594" height="1.15" stroke="white"/>
<rect x="24.0312" y="18.65" width="1.33594" height="1.15" fill="#DBB17F"/>
<rect x="24.0312" y="18.65" width="1.33594" height="1.15" stroke="white"/>
<rect x="24.0312" y="19.8" width="1.33594" height="1.15" fill="#DBB17F"/>
<rect x="24.0312" y="19.8" width="1.33594" height="1.15" stroke="white"/>
<rect x="24.0312" y="24.4" width="1.33594" height="1.15" fill="black"/>
<rect x="24.0312" y="24.4" width="1.33594" height="1.15" stroke="white"/>
<rect x="24.0312" y="20.95" width="1.33594" height="1.15" fill="#DBB17F"/>
<rect x="24.0312" y="20.95" width="1.33594" height="1.15" stroke="white"/>
<rect x="24.0312" y="22.1" width="1.33594" height="1.15" fill="#DBB17F"/>
<rect x="24.0312" y="22.1" width="1.33594" height="1.15" stroke="white"/>
<rect x="26.7031" y="11.75" width="1.33594" height="1.15" fill="black"/>
<rect x="26.7031" y="11.75" width="1.33594" height="1.15" stroke="white"/>
<rect x="24.0312" y="23.25" width="1.33594" height="1.15" fill="#DBB17F"/>
<rect x="24.0312" y="23.25" width="1.33594" height="1.15" stroke="white"/>
<rect x="25.3672" y="10.6" width="1.33594" height="1.15" fill="black"/>
<rect x="25.3672" y="10.6" width="1.33594" height="1.15" stroke="white"/>
<rect x="25.3672" y="11.75" width="1.33594" height="1.15" fill="black"/>
<rect x="25.3672" y="11.75" width="1.33594" height="1.15" stroke="white"/>
<rect x="28.0391" y="11.75" width="1.33594" height="1.15" fill="black"/>
<rect x="28.0391" y="11.75" width="1.33594" height="1.15" stroke="white"/>
<rect x="25.3672" y="12.9" width="1.33594" height="1.15" fill="#DBB17F"/>
<rect x="25.3672" y="12.9" width="1.33594" height="1.15" stroke="white"/>
<rect x="25.3672" y="14.05" width="1.33594" height="1.15" fill="#DBB17F"/>
<rect x="25.3672" y="14.05" width="1.33594" height="1.15" stroke="white"/>
<rect x="25.3672" y="15.2" width="1.33594" height="1.15" fill="#332F2B"/>
<rect x="25.3672" y="15.2" width="1.33594" height="1.15" stroke="white"/>
<rect x="25.3672" y="16.35" width="1.33594" height="1.15" fill="#AF8E6D"/>
<rect x="25.3672" y="16.35" width="1.33594" height="1.15" stroke="white"/>
<rect x="26.7031" y="10.6" width="1.33594" height="1.15" fill="black"/>
<rect x="26.7031" y="10.6" width="1.33594" height="1.15" stroke="white"/>
<rect x="25.3672" y="17.5" width="1.33594" height="1.15" fill="#332F2B"/>
<rect x="25.3672" y="17.5" width="1.33594" height="1.15" stroke="white"/>
<rect x="25.3672" y="18.65" width="1.33594" height="1.15" fill="#DBB17F"/>
<rect x="25.3672" y="18.65" width="1.33594" height="1.15" stroke="white"/>
<rect x="25.3672" y="19.8" width="1.33594" height="1.15" fill="#DBB17F"/>
<rect x="25.3672" y="19.8" width="1.33594" height="1.15" stroke="white"/>
<rect x="25.3672" y="20.95" width="1.33594" height="1.15" fill="#DBB17F"/>
<rect x="25.3672" y="20.95" width="1.33594" height="1.15" stroke="white"/>
</svg>
